<svg width="31" height="27" viewBox="0 0 31 27" fill="none" xmlns="http://www.w3.org/2000/svg">
<path d="M21.6497 11.6215C21.1146 11.6247 20.6839 12.005 20.6876 12.471C20.6913 12.937 21.1279 13.3122 21.6629 13.309L21.6497 11.6215ZM30.0379 13.2589C30.5729 13.2556 31.0037 12.8753 31 12.4093C30.9963 11.9433 30.5596 11.5681 30.0245 11.5714L30.0379 13.2589ZM26.7835 8.81828C26.7797 8.3523 26.343 7.97718 25.8079 7.98044C25.273 7.9837 24.8423 8.36409 24.846 8.8301L26.7835 8.81828ZM24.9041 16.062C24.9078 16.5281 25.3446 16.9031 25.8795 16.8999C26.4146 16.8966 26.8453 16.5162 26.8415 16.0502L24.9041 16.062ZM15.8302 6.5845C15.7406 8.04614 15.2378 9.34327 14.5471 10.2511C13.8391 11.1817 13.0507 11.5714 12.4147 11.5714V13.2589C13.97 13.2589 15.2754 12.349 16.1623 11.1832C17.0663 9.99489 17.6592 8.39914 17.7649 6.67443L15.8302 6.5845ZM12.4147 11.5714C11.7782 11.5714 10.9889 11.1815 10.2807 10.2512C9.58975 9.34344 9.08712 8.04673 8.99919 6.58531L7.06434 6.67357C7.16816 8.39912 7.76126 9.99532 8.66592 11.1837C9.55333 12.3495 10.8596 13.2589 12.4147 13.2589V11.5714ZM8.99919 6.58531C8.90835 5.07375 9.3105 3.81553 9.96449 2.96188C10.6117 2.11698 11.4789 1.6875 12.4147 1.6875V0C10.7106 0 9.28683 0.806013 8.35278 2.02528C7.42541 3.23581 6.95596 4.8704 7.06434 6.67357L8.99919 6.58531ZM12.4147 1.6875C13.3417 1.6875 14.2108 2.12448 14.8631 2.98213C15.5203 3.8463 15.9207 5.10635 15.8302 6.5845L17.7649 6.67443C17.8737 4.89811 17.4025 3.2653 16.4783 2.05024C15.5492 0.828647 14.1273 0 12.4147 0V1.6875ZM12.3795 15.6696C6.81614 15.6696 1.08937 18.7968 0.0328605 24.7374L1.94752 24.9957C2.8332 20.0157 7.60187 17.3571 12.3795 17.3571V15.6696ZM0.0328605 24.7374C-0.0541716 25.2266 0.0282507 25.7518 0.32116 26.1858C0.628238 26.6407 1.18296 27 1.91969 27V25.3125C1.92942 25.3125 1.95674 25.3165 1.98352 25.3311C2.00597 25.3432 2.00446 25.3499 1.99145 25.3306C1.96016 25.2842 1.91748 25.1646 1.94752 24.9957L0.0328605 24.7374ZM1.91969 27H22.8392V25.3125H1.91969V27ZM22.8392 27C23.5759 27 24.1308 26.6411 24.4381 26.1859C24.7313 25.7518 24.8137 25.2265 24.7266 24.7373L22.812 24.9957C22.842 25.1646 22.7993 25.2841 22.7681 25.3305C22.7551 25.3497 22.7536 25.343 22.7759 25.3309C22.8027 25.3165 22.8298 25.3125 22.8392 25.3125V27ZM24.7266 24.7373C23.6695 18.7968 17.9428 15.6696 12.3795 15.6696V17.3571C17.157 17.3571 21.9258 20.0156 22.812 24.9957L24.7266 24.7373ZM21.6629 13.309L25.8504 13.2839L25.8371 11.5964L21.6497 11.6215L21.6629 13.309ZM25.8504 13.2839L30.0379 13.2589L30.0245 11.5714L25.8371 11.5964L25.8504 13.2839ZM24.846 8.8301L24.875 12.4461L26.8124 12.4343L26.7835 8.81828L24.846 8.8301ZM24.875 12.4461L24.9041 16.062L26.8415 16.0502L26.8124 12.4343L24.875 12.4461Z" fill="#6F6BCC"/>
</svg>
