<svg width="3" height="11" viewBox="0 0 3 11" fill="none" xmlns="http://www.w3.org/2000/svg">
<path d="M1.5 6.71875C2.1731 6.71875 2.71875 6.1731 2.71875 5.5C2.71875 4.8269 2.1731 4.28125 1.5 4.28125C0.826903 4.28125 0.28125 4.8269 0.28125 5.5C0.28125 6.1731 0.826903 6.71875 1.5 6.71875Z" fill="#687684"/>
<path d="M1.5 10.7812C2.1731 10.7812 2.71875 10.2356 2.71875 9.5625C2.71875 8.8894 2.1731 8.34375 1.5 8.34375C0.826903 8.34375 0.28125 8.8894 0.28125 9.5625C0.28125 10.2356 0.826903 10.7812 1.5 10.7812Z" fill="#687684"/>
<path d="M1.5 2.65625C2.1731 2.65625 2.71875 2.1106 2.71875 1.4375C2.71875 0.764403 2.1731 0.21875 1.5 0.21875C0.826903 0.21875 0.28125 0.764403 0.28125 1.4375C0.28125 2.1106 0.826903 2.65625 1.5 2.65625Z" fill="#687684"/>
</svg>
