<svg width="28" height="24" viewBox="0 0 28 24" fill="none" xmlns="http://www.w3.org/2000/svg">
<path d="M19.9088 4.62175L19.042 5.12046C19.0652 5.16077 19.0912 5.19941 19.1197 5.23611L19.9088 4.62175ZM18.245 1.73013L19.1118 1.23141C19.0885 1.19089 19.0623 1.15205 19.0336 1.11518L18.245 1.73013ZM9.755 1.73013L8.96643 1.11518C8.93768 1.15205 8.91155 1.19089 8.88823 1.23141L9.755 1.73013ZM8.09125 4.62175L8.88028 5.23611C8.90885 5.19941 8.93483 5.16077 8.95802 5.12046L8.09125 4.62175ZM1 7.6H0H1ZM1 20.8H0H1ZM4.75 5.2625C4.75 5.81479 5.19772 6.2625 5.75 6.2625C6.30228 6.2625 6.75 5.81479 6.75 5.2625H4.75ZM5.75 3.75H6.75C6.75 3.19772 6.30228 2.75 5.75 2.75V3.75ZM4.25 3.75V2.75C3.69772 2.75 3.25 3.19772 3.25 3.75H4.25ZM3.25 5.2625C3.25 5.81479 3.69772 6.2625 4.25 6.2625C4.80228 6.2625 5.25 5.81479 5.25 5.2625H3.25ZM20.7755 4.12304L19.1118 1.23141L17.3782 2.22884L19.042 5.12046L20.7755 4.12304ZM19.0336 1.11518C18.537 0.478394 17.7864 0 16.875 0V2C17.0411 2 17.2518 2.08261 17.4564 2.34507L19.0336 1.11518ZM16.875 0H11.125V2H16.875V0ZM11.125 0C10.2136 0 9.46301 0.478394 8.96643 1.11518L10.5436 2.34507C10.7482 2.08261 10.9589 2 11.125 2V0ZM8.88823 1.23141L7.22448 4.12304L8.95802 5.12046L10.6218 2.22884L8.88823 1.23141ZM7.30222 4.00739C7.04275 4.34063 6.84954 4.4 6.75 4.4V6.4C7.72796 6.4 8.4385 5.80349 8.88028 5.23611L7.30222 4.00739ZM6.75 4.4H3V6.4H6.75V4.4ZM3 4.4C2.17193 4.4 1.39948 4.7627 0.845846 5.37169L2.32573 6.71704C2.52224 6.50087 2.76721 6.4 3 6.4V4.4ZM0.845846 5.37169C0.295096 5.97752 0 6.78044 0 7.6L2 7.6C2 7.25261 2.12633 6.93637 2.32573 6.71704L0.845846 5.37169ZM0 7.6V20.8H2V7.6H0ZM0 20.8C0 21.6196 0.295096 22.4225 0.845846 23.0283L2.32573 21.683C2.12633 21.4636 2 21.1474 2 20.8H0ZM0.845846 23.0283C1.39948 23.6373 2.17193 24 3 24V22C2.76721 22 2.52224 21.8991 2.32573 21.683L0.845846 23.0283ZM3 24H25V22H3V24ZM25 24C25.8281 24 26.6005 23.6373 27.1542 23.0283L25.6743 21.683C25.4778 21.8991 25.2328 22 25 22V24ZM27.1542 23.0283C27.7049 22.4225 28 21.6196 28 20.8H26C26 21.1474 25.8737 21.4636 25.6743 21.683L27.1542 23.0283ZM28 20.8V7.6H26V20.8H28ZM28 7.6C28 6.78044 27.7049 5.97752 27.1542 5.37169L25.6743 6.71704C25.8737 6.93637 26 7.25261 26 7.6H28ZM27.1542 5.37169C26.6005 4.7627 25.8281 4.4 25 4.4V6.4C25.2328 6.4 25.4778 6.50087 25.6743 6.71704L27.1542 5.37169ZM25 4.4H21.3125V6.4H25V4.4ZM21.3125 4.4C21.1753 4.4 20.9262 4.3007 20.6978 4.00739L19.1197 5.23611C19.5926 5.84343 20.3685 6.4 21.3125 6.4V4.4ZM18 13.1C18 15.6771 16.1216 17.6 14 17.6V19.6C17.4013 19.6 20 16.598 20 13.1H18ZM14 17.6C11.8784 17.6 10 15.6771 10 13.1H8C8 16.598 10.5987 19.6 14 19.6V17.6ZM10 13.1C10 10.5229 11.8784 8.6 14 8.6V6.6C10.5987 6.6 8 9.60197 8 13.1H10ZM14 8.6C16.1216 8.6 18 10.5229 18 13.1H20C20 9.60197 17.4013 6.6 14 6.6V8.6ZM6.75 5.2625V3.75H4.75V5.2625H6.75ZM5.75 2.75H4.25V4.75H5.75V2.75ZM3.25 3.75V5.2625H5.25V3.75H3.25Z" fill="#687684"/>
</svg>
