<svg width="38" height="28" viewBox="0 0 38 28" fill="none" xmlns="http://www.w3.org/2000/svg">
<path d="M6.58098 11.1703C6.39659 9.40012 7.78504 7.85953 9.56484 7.85953H27.9074C29.6872 7.85953 31.0756 9.40012 30.8912 11.1703L29.4329 25.1703C29.2737 26.6986 27.9856 27.8595 26.449 27.8595H11.0232C9.48665 27.8595 8.19851 26.6986 8.03932 25.1703L6.58098 11.1703Z" fill="#6F6BCC"/>
<path d="M18.5 0.126865C18.8013 -0.04531 18.4216 -0.039269 18.7263 0.126907L36.7933 9.98164C37.7028 10.4777 37.3505 11.8595 36.3144 11.8595H1.00167C-0.023791 11.8595 -0.384818 10.5001 0.505533 9.99129L18.5 0.126865Z" fill="#6F6BCC"/>
<rect x="15" y="13" width="3" height="3" rx="0.3" fill="#87E77A"/>
<rect x="19" y="13" width="3" height="3" rx="0.3" fill="#AF7AE7"/>
<rect x="19" y="17" width="3" height="3" rx="0.3" fill="#BBE77A"/>
<rect x="15" y="17" width="3" height="3" rx="0.3" fill="#E77A7A"/>
</svg>
