<svg width="22" height="23" viewBox="0 0 22 23" fill="none" xmlns="http://www.w3.org/2000/svg">
<path d="M13.5 16.5V19C13.5 19.663 13.2805 20.2989 12.8898 20.7678C12.4991 21.2366 11.9692 21.5 11.4167 21.5H3.08333C2.5308 21.5 2.00089 21.2366 1.61019 20.7678C1.21949 20.2989 1 19.663 1 19V4C1 3.33696 1.21949 2.70107 1.61019 2.23223C2.00089 1.76339 2.5308 1.5 3.08333 1.5H11C12.1505 1.5 13.5 2.61937 13.5 4V6.5M16.8333 16.5L21 11.5L16.8333 6.5M6.83333 11.5H20.1667" stroke="#6F6BCC" stroke-width="2" stroke-linecap="round" stroke-linejoin="round"/>
</svg>
