<!-- <svg width="116" height="118" viewBox="0 0 116 118" fill="none" xmlns="http://www.w3.org/2000/svg">
<path d="M13.9547 90.788L3.68851 92.7787M22.4811 81.6135L1.67151 79.3726M30.5362 70.4104L16.7237 63.5384M33.622 103.602L32.8588 116.015M43.148 100.743L46.9714 115.828M52.361 90.5012L57.7094 97.0624M81 74.5H96M96 74.5H111M96 74.5V60M96 74.5V89M50.7 76.4251L44.4681 70.6335L57.9372 52.518L101.95 5.15962C104.797 2.09587 109.208 1.56636 111.802 3.97693C114.395 6.38749 114.19 10.8253 111.343 13.889L67.3302 61.2474L50.7 76.4251ZM33.0187 100.815C39.7606 100.07 43.4291 96.8931 49.4415 87.7382C49.6255 87.458 49.7566 87.1402 49.8125 86.8261C51.93 74.9208 45.2498 70.0956 35.0079 71.8961C34.3859 72.0054 33.8018 72.4093 33.418 72.962C23.9978 86.5278 19.6998 95.1269 17.2808 105.962C16.781 108.201 19.639 108.986 21.3564 107.301C24.1009 104.609 27.3425 102.699 32.5081 100.928C32.6747 100.871 32.8498 100.833 33.0187 100.815Z" stroke="white" stroke-width="3" stroke-linecap="round"/>
</svg> -->


<svg xmlns="http://www.w3.org/2000/svg" width="116" height="118" viewBox="0 0 116 118" fill="white">
<path d="M13.9547 90.788L3.68851 92.7787M22.4811 81.6135L1.67151 79.3726M30.5362 70.4104L16.7237 63.5384M33.622 103.602L32.8588 116.015M43.148 100.743L46.9714 115.828M52.361 90.5012L57.7094 97.0624M81 74.5H96M96 74.5H111M96 74.5V60M96 74.5V89M50.7 76.4251L44.4681 70.6335L57.9372 52.518L101.95 5.15962C104.797 2.09587 109.208 1.56636 111.802 3.97693C114.395 6.38749 114.19 10.8253 111.343 13.889L67.3302 61.2474L50.7 76.4251ZM33.0187 100.815C39.7606 100.07 43.4291 96.8931 49.4415 87.7382C49.6255 87.458 49.7566 87.1402 49.8125 86.8261C51.93 74.9208 45.2498 70.0956 35.0079 71.8961C34.3859 72.0054 33.8018 72.4093 33.418 72.962C23.9978 86.5278 19.6998 95.1269 17.2808 105.962C16.781 108.201 19.639 108.986 21.3564 107.301C24.1009 104.609 27.3425 102.699 32.5081 100.928C32.6747 100.871 32.8498 100.833 33.0187 100.815Z" stroke="white" stroke-width="3" stroke-linecap="round"/>
</svg>