<svg width="24" height="22" viewBox="0 0 24 22" fill="none" xmlns="http://www.w3.org/2000/svg">
<path d="M19.1698 5.5L18.1714 5.44335L18.1714 5.44349L19.1698 5.5ZM12.6878 5.5L13.6862 5.44446L13.6862 5.44438L12.6878 5.5ZM8.88012 19.9631L9.86145 20.1554L9.8615 20.1552L8.88012 19.9631ZM22.9781 19.9631L21.9961 20.1522L21.9962 20.1528L22.9781 19.9631ZM9.25035 6.62125L8.25195 6.56473L8.25195 6.56473L9.25035 6.62125ZM4.04507 6.62125L3.04661 6.67674L3.04661 6.67678L4.04507 6.62125ZM9.04126 14.9889C9.51835 15.2671 10.1306 15.1058 10.4089 14.6287C10.6871 14.1517 10.5258 13.5394 10.0487 13.2611L9.04126 14.9889ZM1.01767 18.1719L0.0363091 17.9797L0.0360911 17.9808L1.01767 18.1719ZM6.99147 20C7.54375 20 7.99147 19.5523 7.99147 19C7.99147 18.4477 7.54375 18 6.99147 18V20ZM18.1714 5.44349C18.1091 6.54391 17.758 7.47838 17.294 8.11293C16.8207 8.76019 16.3135 9 15.9288 9V11C17.1597 11 18.2011 10.2607 18.9084 9.29348C19.625 8.31349 20.0866 6.99796 20.1682 5.55651L18.1714 5.44349ZM15.9288 9C15.5438 9 15.036 8.75997 14.5625 8.11293C14.0984 7.47863 13.7474 6.54456 13.6862 5.44446L11.6893 5.55554C11.7696 6.99794 12.2313 8.31387 12.9485 9.29395C13.6563 10.2613 14.6982 11 15.9288 11V9ZM13.6862 5.44438C13.5569 3.12274 14.7803 2 15.9288 2V0C13.1852 0 11.524 2.58851 11.6893 5.55562L13.6862 5.44438ZM15.9288 2C17.0716 2 18.3008 3.16347 18.1714 5.44335L20.1682 5.55665C20.3335 2.64403 18.6782 0 15.9288 0V2ZM15.9289 13C12.287 13 8.76841 15.3266 7.89873 19.7711L9.8615 20.1552C10.5338 16.7196 13.1701 15 15.9289 15V13ZM7.89878 19.7708C7.80783 20.2349 7.86674 20.7323 8.09043 21.1495C8.31769 21.5734 8.78015 22 9.45564 22V20C9.56475 20 9.66649 20.0362 9.74267 20.0889C9.81256 20.1372 9.84333 20.1863 9.85308 20.2045C9.86869 20.2336 9.85026 20.2126 9.86145 20.1554L7.89878 19.7708ZM9.45564 22H22.4026V20H9.45564V22ZM22.4026 22C23.0787 22 23.5408 21.5726 23.7676 21.1489C23.9906 20.7321 24.0492 20.2359 23.9599 19.7735L21.9962 20.1528C22.0076 20.2116 21.9889 20.2338 22.0042 20.2052C22.0138 20.1872 22.0446 20.1378 22.1148 20.0892C22.1913 20.0362 22.2934 20 22.4026 20V22ZM23.96 19.774C23.0899 15.2561 19.5627 13 15.9289 13V15C18.6965 15 21.3243 16.6639 21.9961 20.1522L23.96 19.774ZM8.25195 6.56473C8.20424 7.4075 7.93218 8.12579 7.581 8.6089C7.21844 9.10768 6.86287 9.25 6.64771 9.25V11.25C7.72306 11.25 8.61136 10.5929 9.19876 9.78485C9.79755 8.96109 10.1815 7.865 10.2488 6.67777L8.25195 6.56473ZM6.64771 9.25C6.43218 9.25 6.07612 9.10743 5.7135 8.60889C5.36229 8.12603 5.09038 7.40816 5.04352 6.56572L3.04661 6.67678C3.1127 7.86496 3.49685 8.96147 4.0961 9.78533C4.68394 10.5935 5.57272 11.25 6.64771 11.25V9.25ZM5.04353 6.56576C4.9439 4.773 5.8933 4 6.64771 4V2C4.29269 2 2.91151 4.24575 3.04661 6.67674L5.04353 6.56576ZM6.64771 4C7.39636 4 8.35161 4.80438 8.25195 6.56473L10.2488 6.67777C10.3838 4.29187 9.00848 2 6.64771 2V4ZM10.0487 13.2611C8.9734 12.6341 7.81236 12.4094 6.64772 12.4094V14.4094C7.55242 14.4094 8.34386 14.5822 9.04126 14.9889L10.0487 13.2611ZM6.64772 12.4094C3.65289 12.4094 0.751409 14.3282 0.0363098 17.9797L1.99903 18.3641C2.5165 15.7217 4.53548 14.4094 6.64772 14.4094V12.4094ZM0.0360911 17.9808C-0.0440086 18.3923 0.00753099 18.8371 0.210236 19.2149C0.4164 19.5991 0.844507 20 1.47779 20V18C1.60832 18 1.72924 18.0428 1.82176 18.1068C1.90799 18.1664 1.95241 18.2317 1.97254 18.2692C1.99304 18.3074 1.99788 18.3336 1.99918 18.3433C2.00064 18.3541 1.99983 18.3599 1.99924 18.3629L0.0360911 17.9808ZM1.47779 20H6.99147V18H1.47779V20Z" fill="#687684"/>
</svg>
